ply
format ascii 1.0
element vertex 400
property float x
property float y
property float z
property uchar red
property uchar green
property uchar blue
property uchar alpha
element face 722
property list uchar int vertex_indices
end_header
0 0 200 255 255 0 255
0 0 205.491 255 255 0 255
0 0 207.359 255 255 0 255
0 0 204.923 255 255 0 255
0 0 200.402 255 255 0 255
-0 0 196.492 255 255 0 255
-0 0 193.504 255 255 0 255
-0 0 191.839 255 255 0 255
-0 0 193.129 255 255 0 255
-0 0 197.476 255 255 0 255
-0 -0 202.635 255 255 0 255
-0 -0 205.19 255 255 0 255
-0 -0 204.121 255 255 0 255
-0 -0 200.715 255 255 0 255
-0 -0 196.278 255 255 0 255
0 -0 193.068 255 255 0 255
0 -0 192.033 255 255 0 255
0 -0 192.967 255 255 0 255
0 -0 195.741 255 255 0 255
0 0 198.362 255 255 0 255
32.467 0 194.564 255 255 0 255
31.5049 10.8157 199.614 255 255 0 255
26.5243 20.6447 201.423 255 255 0 255
18.1742 27.8177 199.127 255 255 0 255
8.00443 31.6088 195.4 255 255 0 255
-2.65843 32.0824 192.918 255 255 0 255
-12.8402 29.2727 191.556 255 255 0 255
-21.6023 23.4664 191.14 255 255 0 255
-28.3003 15.3154 192.836 255 255 0 255
-32.4169 5.40942 196.95 255 255 0 255
-33.1815 -5.53702 201.595 255 255 0 255
-30.02 -16.246 204.554 255 255 0 255
-23.1615 -25.1601 204.936 255 255 0 255
-13.5602 -30.9141 202.297 255 255 0 255
-2.72087 -32.836 197.45 255 255 0 255
7.92845 -31.3087 193.545 255 255 0 255
17.6056 -26.9473 192.896 255 255 0 255
25.6684 -19.9785 194.924 255 255 0 255
31.2355 -10.7231 197.907 255 255 0 255
33.3232 5.82641e-06 199.695 255 255 0 255
63.8695 0 186.045 255 255 0 255
61.2496 21.027 188.635 255 255 0 255
51.0942 39.7682 188.601 255 255 0 255
35.0008 53.5727 186.405 255 255 0 255
15.5937 61.578 185.032 255 255 0 255
-5.26654 63.5576 185.771 255 255 0 255
-25.7866 58.7875 186.992 255 255 0 255
-43.5529 47.311 187.315 255 255 0 255
-56.5465 30.6014 187.287 255 255 0 255
-63.8571 10.6559 188.581 255 255 0 255
-64.7688 -10.808 191.274 255 255 0 255
-58.6345 -31.7314 194.203 255 255 0 255
-45.535 -49.4642 195.84 255 255 0 255
-26.8606 -61.2361 194.78 255 255 0 255
-5.42813 -65.5078 191.472 255 255 0 255
15.9249 -62.886 188.963 255 255 0 255
35.6152 -54.5131 189.677 255 255 0 255
52.1443 -40.5855 192.477 255 255 0 255
63.2774 -21.7231 194.88 255 255 0 255
66.9429 1.17047e-05 194.998 255 255 0 255
95.2016 0 175.917 255 255 0 255
89.338 30.6698 174.539 255 255 0 255
73.343 57.0852 171.739 255 255 0 255
50.2309 76.8841 169.703 255 255 0 255
22.6637 89.497 170.596 255 255 0 255
-7.77944 93.8838 174.077 255 255 0 255
-38.5331 87.8467 177.256 255 255 0 255
-65.0542 70.6677 177.488 255 255 0 255
-83.2308 45.0422 174.874 255 255 0 255
-92.1738 15.3811 172.677 255 255 0 255
-92.4762 -15.4316 173.244 255 255 0 255
-83.6014 -45.2428 175.653 255 255 0 255
-65.2689 -70.9009 178.074 255 255 0 255
-38.8889 -88.6578 178.893 255 255 0 255
-7.96105 -96.0755 178.14 255 255 0 255
23.628 -93.3046 177.854 255 255 0 255
53.1325 -81.3253 179.506 255 255 0 255
77.6933 -60.4711 181.925 255 255 0 255
93.6704 -32.157 183.003 255 255 0 255
97.9164 1.71203e-05 180.934 255 255 0 255
125.839 0 161.679 255 255 0 255
116.208 39.8943 157.857 255 255 0 255
94.1201 73.2566 153.237 255 255 0 255
64.4639 98.6694 151.428 255 255 0 255
29.3488 115.896 153.603 255 255 0 255
-10.1588 122.598 158.054 255 255 0 255
-50.5407 115.221 161.652 255 255 0 255
-85.1182 92.4631 161.469 255 255 0 255
-107.748 58.3103 157.406 255 255 0 255
-117.611 19.6258 153.196 255 255 0 255
-116.698 -19.4734 152.006 255 255 0 255
-104.991 -56.8181 153.378 255 255 0 255
-82.1443 -89.2325 155.827 255 255 0 255
-49.3979 -112.616 157.996 255 255 0 255
-10.2529 -123.734 159.518 255 255 0 255
30.7725 -121.518 161.054 255 255 0 255
69.3419 -106.136 162.886 255 255 0 255
100.702 -78.3796 163.953 255 255 0 255
119.88 -41.1547 162.845 255 255 0 255
123.81 2.16476e-05 159.071 255 255 0 255
152.23 0 140.138 255 255 0 255
140.51 48.2372 136.759 255 255 0 255
113.675 88.4772 132.607 255 255 0 255
77.9965 119.382 131.275 255 255 0 255
35.6477 140.77 133.678 255 255 0 255
-12.3522 149.069 137.698 255 255 0 255
-61.3141 139.782 140.513 255 255 0 255
-103.065 111.958 140.086 255 255 0 255
-130.398 70.568 136.491 255 255 0 255
-142.025 23.6997 132.551 255 255 0 255
-140.077 -23.3748 130.733 255 255 0 255
-125.016 -67.6553 130.857 255 255 0 255
-97.4195 -105.826 132.413 255 255 0 255
-58.8084 -134.07 134.771 255 255 0 255
-12.3054 -148.504 137.176 255 255 0 255
37.1592 -146.738 139.346 255 255 0 255
83.7091 -128.126 140.89 255 255 0 255
120.79 -94.0148 140.907 255 255 0 255
142.348 -48.8682 138.548 255 255 0 255
146.16 2.55554e-05 134.55 255 255 0 255
171.478 0 112.032 255 255 0 255
160.114 54.9672 110.6 255 255 0 255
130.826 101.826 108.312 255 255 0 255
90.1511 137.987 107.686 255 255 0 255
41.1468 162.485 109.508 255 255 0 255
-14.1763 171.082 112.157 255 255 0 255
-69.9243 159.411 113.727 255 255 0 255
-117.613 127.762 113.454 255 255 0 255
-150.522 81.4584 111.818 255 255 0 255
-166.212 27.7358 110.093 255 255 0 255
-164.627 -27.4714 109.043 255 255 0 255
-145.79 -78.8975 108.303 255 255 0 255
-112.065 -121.735 108.102 255 255 0 255
-66.9543 -152.641 108.897 255 255 0 255
-13.9744 -168.645 110.559 255 255 0 255
42.2304 -166.764 112.392 255 255 0 255
95.2158 -145.739 113.736 255 255 0 255
137.405 -106.947 113.758 255 255 0 255
162.044 -55.6296 111.933 255 255 0 255
167.189 2.92322e-05 109.23 255 255 0 255
183.697 0 80.5771 255 255 0 255
173.538 59.5756 80.4815 255 255 0 255
143.427 111.634 79.7236 255 255 0 255
99.3783 152.11 79.6992 255 255 0 255
45.2324 178.619 80.8226 255 255 0 255
-15.4592 186.565 82.1153 255 255 0 255
-75.71 172.601 82.6733 255 255 0 255
-127.47 138.47 82.5561 255 255 0 255
-165.376 89.4971 82.482 255 255 0 255
-186.157 31.0641 82.7851 255 255 0 255
-186.347 -31.0959 82.8698 255 255 0 255
-164.726 -89.1453 82.1577 255 255 0 255
-124.822 -135.593 80.8407 255 255 0 255
-73.1001 -166.651 79.8233 255 255 0 255
-15.0502 -181.628 79.9426 255 255 0 255
45.3126 -178.935 80.9658 255 255 0 255
102.445 -156.803 82.1583 255 255 0 255
148.787 -115.805 82.7025 255 255 0 255
177.115 -60.8034 82.1402 255 255 0 255
184.754 3.23034e-05 81.0406 255 255 0 255
190.4 0 48.2159 255 255 0 255
180.209 61.8657 48.2492 255 255 0 255
150.118 116.842 48.1729 255 255 0 255
104.754 160.338 48.5005 255 255 0 255
47.7059 188.386 49.2118 255 255 0 255
-16.2132 195.663 49.7185 255 255 0 255
-78.7862 179.614 49.6679 255 255 0 255
-132.384 143.808 49.4983 255 255 0 255
-172.929 93.5846 49.793 255 255 0 255
-196.687 32.8212 50.4965 255 255 0 255
-198.593 -33.1393 50.9859 255 255 0 255
-176.386 -95.4551 50.7882 255 255 0 255
-133.037 -144.517 49.7424 255 255 0 255
-76.834 -175.164 48.4372 255 255 0 255
-15.5888 -188.128 47.8038 255 255 0 255
46.587 -183.968 48.0575 255 255 0 255
105.324 -161.21 48.7643 255 255 0 255
153.987 -119.853 49.4143 255 255 0 255
185.478 -63.6745 49.66 255 255 0 255
196.202 3.43051e-05 49.6852 255 255 0 255
193.252 0 16.0133 255 255 0 255
181.958 62.4662 15.9412 255 255 0 255
152.243 118.495 15.986 255 255 0 255
107.163 164.026 16.2352 255 255 0 255
49.0491 193.691 16.5563 255 255 0 255
-16.6345 200.749 16.6915 255 255 0 255
-80.1503 182.724 16.5335 255 255 0 255
-133.489 145.007 16.3317 255 255 0 255
-173.678 93.99 16.3636 255 255 0 255
-197.401 32.9403 16.5832 255 255 0 255
-200.192 -33.4062 16.8177 255 255 0 255
-179.31 -97.0375 16.8942 255 255 0 255
-136.254 -148.011 16.67 255 255 0 255
-78.7401 -179.509 16.2426 255 255 0 255
-15.8637 -191.446 15.918 255 255 0 255
47.0122 -185.647 15.8687 255 255 0 255
105.882 -162.064 16.041 255 255 0 255
155.325 -120.894 16.3096 255 255 0 255
189.041 -64.8977 16.5617 255 255 0 255
202.464 3.53999e-05 16.7766 255 255 0 255
192.227 0 -15.9284 255 255 0 255
180.689 62.0306 -15.83 255 255 0 255
151.765 118.123 -15.9358 255 255 0 255
107.752 164.927 -16.3244 255 255 0 255
49.6093 195.903 -16.7454 255 255 0 255
-16.8168 202.948 -16.8744 255 255 0 255
-80.3746 183.236 -16.5798 255 255 0 255
-132.045 143.439 -16.1551 255 255 0 255
-169.65 91.81 -15.9841 255 255 0 255
-191.68 31.9857 -16.1027 255 255 0 255
-194.638 -32.4794 -16.3512 255 255 0 255
-175.881 -95.1818 -16.5712 255 255 0 255
-135.922 -147.651 -16.6295 255 255 0 255
-79.7501 -181.812 -16.451 255 255 0 255
-16.128 -194.636 -16.1833 255 255 0 255
47.4725 -187.464 -16.0241 255 255 0 255
105.962 -162.187 -16.0532 255 255 0 255
154.785 -120.474 -16.253 255 255 0 255
188.822 -64.8228 -16.5426 255 255 0 255
203.24 3.55356e-05 -16.841 255 255 0 255
186.796 0 -47.3032 255 255 0 255
176.481 60.586 -47.2512 255 255 0 255
149.081 116.034 -47.8398 255 255 0 255
106.312 162.723 -49.222 255 255 0 255
48.9848 193.437 -50.5311 255 255 0 255
-16.5743 200.022 -50.826 255 255 0 255
-78.9381 179.961 -49.7637 255 255 0 255
-128.847 139.966 -48.1758 255 255 0 255
-164.087 88.7996 -47.247 255 255 0 255
-183.937 30.6936 -47.2232 255 255 0 255
-186.288 -31.086 -47.8268 255 255 0 255
-169.703 -91.8386 -48.864 255 255 0 255
-133.37 -144.878 -49.8666 255 255 0 255
-79.6306 -181.54 -50.2003 255 255 0 255
-16.2331 -195.904 -49.7796 255 255 0 255
47.6008 -187.971 -49.1034 255 255 0 255
105.092 -160.855 -48.6571 255 255 0 255
151.524 -117.936 -48.624 255 255 0 255
183.05 -62.8412 -49.0102 255 255 0 255
196.243 3.43121e-05 -49.6954 255 255 0 255
177.762 0 -77.9737 255 255 0 255
168.885 57.9784 -78.3237 255 255 0 255
143.066 111.353 -79.5229 255 255 0 255
101.76 155.755 -81.6094 255 255 0 255
46.6424 184.187 -83.342 255 255 0 255
-15.7657 190.263 -83.7432 255 255 0 255
-75.6607 172.489 -82.6194 255 255 0 255
-124.551 135.298 -80.6651 255 255 0 255
-158.708 85.8882 -79.1559 255 255 0 255
-176.451 29.4445 -78.469 255 255 0 255
-177.463 -29.6134 -78.9189 255 255 0 255
-161.766 -87.5435 -80.6815 255 255 0 255
-127.604 -138.615 -82.6428 255 255 0 255
-76.5176 -174.443 -83.5552 255 255 0 255
-15.6424 -188.775 -83.0884 255 255 0 255
45.8102 -180.9 -81.855 255 255 0 255
100.496 -153.82 -80.5954 255 255 0 255
143.207 -111.462 -79.6009 255 255 0 255
170.68 -58.5946 -79.1563 255 255 0 255
181.23 3.16873e-05 -79.4948 255 255 0 255
164.834 0 -107.692 255 255 0 255
156.356 53.677 -108.004 255 255 0 255
131.96 102.708 -109.25 255 255 0 255
93.2226 142.688 -111.355 255 255 0 255
42.5319 167.955 -113.194 255 255 0 255
-14.4188 174.008 -114.075 255 255 0 255
-70.0317 159.656 -113.902 255 255 0 255
-117.003 127.099 -112.866 255 255 0 255
-149.971 81.1601 -111.408 255 255 0 255
-165.882 27.6808 -109.875 255 255 0 255
-165.467 -27.6116 -109.6 255 255 0 255
-149.523 -80.918 -111.076 255 255 0 255
-116.917 -127.005 -112.782 255 255 0 255
-69.5547 -158.569 -113.126 255 255 0 255
-14.156 -170.837 -111.996 255 255 0 255
41.4445 -163.66 -110.3 255 255 0 255
91.091 -139.425 -108.809 255 255 0 255
129.72 -100.965 -107.396 255 255 0 255
153.73 -52.7756 -106.191 255 255 0 255
161.838 2.82967e-05 -105.734 255 255 0 255
146.431 0 -134.8 255 255 0 255
137.721 47.2798 -134.044 255 255 0 255
115.07 89.5628 -134.234 255 255 0 255
80.673 123.479 -135.78 255 255 0 255
36.8602 145.558 -138.225 255 255 0 255
-12.5868 151.899 -140.312 255 255 0 255
-61.6029 140.441 -141.175 255 255 0 255
-103.697 112.644 -140.945 255 255 0 255
-133.222 72.0963 -139.447 255 255 0 255
-147.149 24.5549 -137.334 255 255 0 255
-146.159 -24.3896 -136.409 255 255 0 255
-130.951 -70.8671 -137.069 255 255 0 255
-101.274 -110.013 -137.652 255 255 0 255
-59.6843 -136.067 -136.778 255 255 0 255
-12.0934 -145.946 -134.813 255 255 0 255
35.4927 -140.158 -133.097 255 255 0 255
78.7531 -120.541 -132.549 255 255 0 255
113.45 -88.3013 -132.344 255 255 0 255
135.112 -46.384 -131.505 255 255 0 255
141.595 2.47572e-05 -130.347 255 255 0 255
123.1 0 -158.159 255 255 0 255
114.601 39.3427 -155.675 255 255 0 255
94.5037 73.5552 -153.862 255 255 0 255
65.6936 100.552 -154.317 255 255 0 255
30.0826 118.793 -157.444 255 255 0 255
-10.3514 124.923 -161.051 255 255 0 255
-50.8247 115.869 -162.56 255 255 0 255
-85.2903 92.65 -161.795 255 255 0 255
-109.227 59.1108 -159.567 255 255 0 255
-120.841 20.1648 -157.404 255 255 0 255
-120.363 -20.0851 -156.781 255 255 0 255
-107.751 -58.3117 -157.41 255 255 0 255
-82.9109 -90.0653 -157.282 255 255 0 255
-48.5728 -110.735 -155.357 255 255 0 255
-9.83216 -118.656 -152.972 255 255 0 255
29.0341 -114.653 -151.956 255 255 0 255
65.3782 -100.069 -153.576 255 255 0 255
96.0221 -74.737 -156.334 255 255 0 255
115.72 -39.7267 -157.195 255 255 0 255
121.216 2.11941e-05 -155.738 255 255 0 255
96.3907 0 -178.115 255 255 0 255
89.124 30.5963 -174.121 255 255 0 255
72.66 56.5536 -170.14 255 255 0 255
50.0586 76.6204 -169.121 255 255 0 255
22.8627 90.2826 -172.094 255 255 0 255
-7.87171 94.9973 -176.141 255 255 0 255
-38.5342 87.8492 -177.261 255 255 0 255
-64.2393 69.7825 -175.265 255 255 0 255
-82.1634 44.4646 -172.631 255 255 0 255
-91.4241 15.256 -171.273 255 255 0 255
-91.8934 -15.3343 -172.152 255 255 0 255
-82.8681 -44.846 -174.112 255 255 0 255
-63.9399 -69.4572 -174.448 255 255 0 255
-37.4476 -85.372 -172.263 255 255 0 255
-7.58757 -91.5683 -169.783 255 255 0 255
22.5718 -89.1338 -169.904 255 255 0 255
51.4581 -78.7624 -173.849 255 255 0 255
76.392 -59.4582 -178.878 255 255 0 255
92.6228 -31.7974 -180.957 255 255 0 255
97.0466 1.69682e-05 -179.326 255 255 0 255
66.7445 0 -194.42 255 255 0 255
61.6037 21.1486 -189.725 255 255 0 255
49.9193 38.8538 -184.264 255 255 0 255
34.1357 52.2486 -181.798 255 255 0 255
15.4744 61.1071 -183.618 255 255 0 255
-5.29265 63.8728 -186.693 255 255 0 255
-25.7691 58.7476 -186.865 255 255 0 255
-42.8303 46.5261 -184.208 255 255 0 255
-54.927 29.725 -181.924 255 255 0 255
-61.6258 10.2835 -181.992 255 255 0 255
-62.6732 -10.4583 -185.085 255 255 0 255
-57.1494 -30.9277 -189.284 255 255 0 255
-44.4613 -48.2978 -191.222 255 255 0 255
-26.1849 -59.6956 -189.88 255 255 0 255
-5.31629 -64.158 -187.527 255 255 0 255
15.8115 -62.4383 -187.618 255 255 0 255
35.9421 -55.0134 -191.418 255 255 0 255
53.0076 -41.2575 -195.663 255 255 0 255
63.8531 -21.9208 -196.653 255 255 0 255
66.7842 1.16769e-05 -194.536 255 255 0 255
34.1796 0 -204.828 255 255 0 255
31.675 10.874 -200.692 255 255 0 255
25.6933 19.9979 -195.113 255 255 0 255
17.5178 26.8129 -191.935 255 255 0 255
7.8862 31.1419 -192.514 255 255 0 255
-2.67364 32.266 -194.023 255 255 0 255
-12.944 29.5093 -193.104 255 255 0 255
-21.5441 23.4031 -190.625 255 255 0 255
-27.8341 15.063 -189.659 255 255 0 255
-31.4734 5.25198 -191.218 255 255 0 255
-32.1354 -5.36246 -195.24 255 255 0 255
-29.3921 -15.9062 -200.276 255 255 0 255
-23.0024 -24.9873 -203.528 255 255 0 255
-13.6649 -31.1528 -203.859 255 255 0 255
-2.78582 -33.6198 -202.163 255 255 0 255
8.23516 -32.5199 -201.033 255 255 0 255
18.4216 -28.1964 -201.838 255 255 0 255
26.7199 -20.7969 -202.909 255 255 0 255
31.8528 -10.935 -201.818 255 255 0 255
33.2014 5.80511e-06 -198.965 255 255 0 255
-1.80857e-05 -0 -206.877 255 255 0 255
-1.6909e-05 -5.80486e-06 -204.496 255 255 0 255
-1.38288e-05 -1.07634e-05 -200.45 255 255 0 255
-9.46787e-06 -1.44917e-05 -198.007 255 255 0 255
-4.24792e-06 -1.67747e-05 -197.937 255 255 0 255
1.42734e-06 -1.72255e-05 -197.712 255 255 0 255
6.86326e-06 -1.56467e-05 -195.438 255 255 0 255
1.14378e-05 -1.24247e-05 -193.174 255 255 0 255
1.48717e-05 -8.04814e-06 -193.425 255 255 0 255
1.68848e-05 -2.81756e-06 -195.81 255 255 0 255
1.71613e-05 2.86373e-06 -199.017 255 255 0 255
1.55672e-05 8.42453e-06 -202.471 255 255 0 255
1.21827e-05 1.3234e-05 -205.755 255 255 0 255
7.29264e-06 1.66256e-05 -207.665 255 255 0 255
1.49541e-06 1.80469e-05 -207.139 255 255 0 255
-4.40432e-06 1.73923e-05 -205.224 255 255 0 255
-9.71777e-06 1.48741e-05 -203.234 255 255 0 255
-1.38931e-05 1.08134e-05 -201.382 255 255 0 255
-1.64368e-05 5.64276e-06 -198.786 255 255 0 255
-1.712e-05 -2.99336e-12 -195.83 255 255 0 255
3 0 1 20
3 1 21 20
3 1 2 21
3 2 22 21
3 2 3 22
3 3 23 22
3 3 4 23
3 4 24 23
3 4 5 24
3 5 25 24
3 5 6 25
3 6 26 25
3 6 7 26
3 7 27 26
3 7 8 27
3 8 28 27
3 8 9 28
3 9 29 28
3 9 10 29
3 10 30 29
3 10 11 30
3 11 31 30
3 11 12 31
3 12 32 31
3 12 13 32
3 13 33 32
3 13 14 33
3 14 34 33
3 14 15 34
3 15 35 34
3 15 16 35
3 16 36 35
3 16 17 36
3 17 37 36
3 17 18 37
3 18 38 37
3 18 19 38
3 19 39 38
3 20 21 40
3 21 41 40
3 21 22 41
3 22 42 41
3 22 23 42
3 23 43 42
3 23 24 43
3 24 44 43
3 24 25 44
3 25 45 44
3 25 26 45
3 26 46 45
3 26 27 46
3 27 47 46
3 27 28 47
3 28 48 47
3 28 29 48
3 29 49 48
3 29 30 49
3 30 50 49
3 30 31 50
3 31 51 50
3 31 32 51
3 32 52 51
3 32 33 52
3 33 53 52
3 33 34 53
3 34 54 53
3 34 35 54
3 35 55 54
3 35 36 55
3 36 56 55
3 36 37 56
3 37 57 56
3 37 38 57
3 38 58 57
3 38 39 58
3 39 59 58
3 40 41 60
3 41 61 60
3 41 42 61
3 42 62 61
3 42 43 62
3 43 63 62
3 43 44 63
3 44 64 63
3 44 45 64
3 45 65 64
3 45 46 65
3 46 66 65
3 46 47 66
3 47 67 66
3 47 48 67
3 48 68 67
3 48 49 68
3 49 69 68
3 49 50 69
3 50 70 69
3 50 51 70
3 51 71 70
3 51 52 71
3 52 72 71
3 52 53 72
3 53 73 72
3 53 54 73
3 54 74 73
3 54 55 74
3 55 75 74
3 55 56 75
3 56 76 75
3 56 57 76
3 57 77 76
3 57 58 77
3 58 78 77
3 58 59 78
3 59 79 78
3 60 61 80
3 61 81 80
3 61 62 81
3 62 82 81
3 62 63 82
3 63 83 82
3 63 64 83
3 64 84 83
3 64 65 84
3 65 85 84
3 65 66 85
3 66 86 85
3 66 67 86
3 67 87 86
3 67 68 87
3 68 88 87
3 68 69 88
3 69 89 88
3 69 70 89
3 70 90 89
3 70 71 90
3 71 91 90
3 71 72 91
3 72 92 91
3 72 73 92
3 73 93 92
3 73 74 93
3 74 94 93
3 74 75 94
3 75 95 94
3 75 76 95
3 76 96 95
3 76 77 96
3 77 97 96
3 77 78 97
3 78 98 97
3 78 79 98
3 79 99 98
3 80 81 100
3 81 101 100
3 81 82 101
3 82 102 101
3 82 83 102
3 83 103 102
3 83 84 103
3 84 104 103
3 84 85 104
3 85 105 104
3 85 86 105
3 86 106 105
3 86 87 106
3 87 107 106
3 87 88 107
3 88 108 107
3 88 89 108
3 89 109 108
3 89 90 109
3 90 110 109
3 90 91 110
3 91 111 110
3 91 92 111
3 92 112 111
3 92 93 112
3 93 113 112
3 93 94 113
3 94 114 113
3 94 95 114
3 95 115 114
3 95 96 115
3 96 116 115
3 96 97 116
3 97 117 116
3 97 98 117
3 98 118 117
3 98 99 118
3 99 119 118
3 100 101 120
3 101 121 120
3 101 102 121
3 102 122 121
3 102 103 122
3 103 123 122
3 103 104 123
3 104 124 123
3 104 105 124
3 105 125 124
3 105 106 125
3 106 126 125
3 106 107 126
3 107 127 126
3 107 108 127
3 108 128 127
3 108 109 128
3 109 129 128
3 109 110 129
3 110 130 129
3 110 111 130
3 111 131 130
3 111 112 131
3 112 132 131
3 112 113 132
3 113 133 132
3 113 114 133
3 114 134 133
3 114 115 134
3 115 135 134
3 115 116 135
3 116 136 135
3 116 117 136
3 117 137 136
3 117 118 137
3 118 138 137
3 118 119 138
3 119 139 138
3 120 121 140
3 121 141 140
3 121 122 141
3 122 142 141
3 122 123 142
3 123 143 142
3 123 124 143
3 124 144 143
3 124 125 144
3 125 145 144
3 125 126 145
3 126 146 145
3 126 127 146
3 127 147 146
3 127 128 147
3 128 148 147
3 128 129 148
3 129 149 148
3 129 130 149
3 130 150 149
3 130 131 150
3 131 151 150
3 131 132 151
3 132 152 151
3 132 133 152
3 133 153 152
3 133 134 153
3 134 154 153
3 134 135 154
3 135 155 154
3 135 136 155
3 136 156 155
3 136 137 156
3 137 157 156
3 137 138 157
3 138 158 157
3 138 139 158
3 139 159 158
3 140 141 160
3 141 161 160
3 141 142 161
3 142 162 161
3 142 143 162
3 143 163 162
3 143 144 163
3 144 164 163
3 144 145 164
3 145 165 164
3 145 146 165
3 146 166 165
3 146 147 166
3 147 167 166
3 147 148 167
3 148 168 167
3 148 149 168
3 149 169 168
3 149 150 169
3 150 170 169
3 150 151 170
3 151 171 170
3 151 152 171
3 152 172 171
3 152 153 172
3 153 173 172
3 153 154 173
3 154 174 173
3 154 155 174
3 155 175 174
3 155 156 175
3 156 176 175
3 156 157 176
3 157 177 176
3 157 158 177
3 158 178 177
3 158 159 178
3 159 179 178
3 160 161 180
3 161 181 180
3 161 162 181
3 162 182 181
3 162 163 182
3 163 183 182
3 163 164 183
3 164 184 183
3 164 165 184
3 165 185 184
3 165 166 185
3 166 186 185
3 166 167 186
3 167 187 186
3 167 168 187
3 168 188 187
3 168 169 188
3 169 189 188
3 169 170 189
3 170 190 189
3 170 171 190
3 171 191 190
3 171 172 191
3 172 192 191
3 172 173 192
3 173 193 192
3 173 174 193
3 174 194 193
3 174 175 194
3 175 195 194
3 175 176 195
3 176 196 195
3 176 177 196
3 177 197 196
3 177 178 197
3 178 198 197
3 178 179 198
3 179 199 198
3 180 181 200
3 181 201 200
3 181 182 201
3 182 202 201
3 182 183 202
3 183 203 202
3 183 184 203
3 184 204 203
3 184 185 204
3 185 205 204
3 185 186 205
3 186 206 205
3 186 187 206
3 187 207 206
3 187 188 207
3 188 208 207
3 188 189 208
3 189 209 208
3 189 190 209
3 190 210 209
3 190 191 210
3 191 211 210
3 191 192 211
3 192 212 211
3 192 193 212
3 193 213 212
3 193 194 213
3 194 214 213
3 194 195 214
3 195 215 214
3 195 196 215
3 196 216 215
3 196 197 216
3 197 217 216
3 197 198 217
3 198 218 217
3 198 199 218
3 199 219 218
3 200 201 220
3 201 221 220
3 201 202 221
3 202 222 221
3 202 203 222
3 203 223 222
3 203 204 223
3 204 224 223
3 204 205 224
3 205 225 224
3 205 206 225
3 206 226 225
3 206 207 226
3 207 227 226
3 207 208 227
3 208 228 227
3 208 209 228
3 209 229 228
3 209 210 229
3 210 230 229
3 210 211 230
3 211 231 230
3 211 212 231
3 212 232 231
3 212 213 232
3 213 233 232
3 213 214 233
3 214 234 233
3 214 215 234
3 215 235 234
3 215 216 235
3 216 236 235
3 216 217 236
3 217 237 236
3 217 218 237
3 218 238 237
3 218 219 238
3 219 239 238
3 220 221 240
3 221 241 240
3 221 222 241
3 222 242 241
3 222 223 242
3 223 243 242
3 223 224 243
3 224 244 243
3 224 225 244
3 225 245 244
3 225 226 245
3 226 246 245
3 226 227 246
3 227 247 246
3 227 228 247
3 228 248 247
3 228 229 248
3 229 249 248
3 229 230 249
3 230 250 249
3 230 231 250
3 231 251 250
3 231 232 251
3 232 252 251
3 232 233 252
3 233 253 252
3 233 234 253
3 234 254 253
3 234 235 254
3 235 255 254
3 235 236 255
3 236 256 255
3 236 237 256
3 237 257 256
3 237 238 257
3 238 258 257
3 238 239 258
3 239 259 258
3 240 241 260
3 241 261 260
3 241 242 261
3 242 262 261
3 242 243 262
3 243 263 262
3 243 244 263
3 244 264 263
3 244 245 264
3 245 265 264
3 245 246 265
3 246 266 265
3 246 247 266
3 247 267 266
3 247 248 267
3 248 268 267
3 248 249 268
3 249 269 268
3 249 250 269
3 250 270 269
3 250 251 270
3 251 271 270
3 251 252 271
3 252 272 271
3 252 253 272
3 253 273 272
3 253 254 273
3 254 274 273
3 254 255 274
3 255 275 274
3 255 256 275
3 256 276 275
3 256 257 276
3 257 277 276
3 257 258 277
3 258 278 277
3 258 259 278
3 259 279 278
3 260 261 280
3 261 281 280
3 261 262 281
3 262 282 281
3 262 263 282
3 263 283 282
3 263 264 283
3 264 284 283
3 264 265 284
3 265 285 284
3 265 266 285
3 266 286 285
3 266 267 286
3 267 287 286
3 267 268 287
3 268 288 287
3 268 269 288
3 269 289 288
3 269 270 289
3 270 290 289
3 270 271 290
3 271 291 290
3 271 272 291
3 272 292 291
3 272 273 292
3 273 293 292
3 273 274 293
3 274 294 293
3 274 275 294
3 275 295 294
3 275 276 295
3 276 296 295
3 276 277 296
3 277 297 296
3 277 278 297
3 278 298 297
3 278 279 298
3 279 299 298
3 280 281 300
3 281 301 300
3 281 282 301
3 282 302 301
3 282 283 302
3 283 303 302
3 283 284 303
3 284 304 303
3 284 285 304
3 285 305 304
3 285 286 305
3 286 306 305
3 286 287 306
3 287 307 306
3 287 288 307
3 288 308 307
3 288 289 308
3 289 309 308
3 289 290 309
3 290 310 309
3 290 291 310
3 291 311 310
3 291 292 311
3 292 312 311
3 292 293 312
3 293 313 312
3 293 294 313
3 294 314 313
3 294 295 314
3 295 315 314
3 295 296 315
3 296 316 315
3 296 297 316
3 297 317 316
3 297 298 317
3 298 318 317
3 298 299 318
3 299 319 318
3 300 301 320
3 301 321 320
3 301 302 321
3 302 322 321
3 302 303 322
3 303 323 322
3 303 304 323
3 304 324 323
3 304 305 324
3 305 325 324
3 305 306 325
3 306 326 325
3 306 307 326
3 307 327 326
3 307 308 327
3 308 328 327
3 308 309 328
3 309 329 328
3 309 310 329
3 310 330 329
3 310 311 330
3 311 331 330
3 311 312 331
3 312 332 331
3 312 313 332
3 313 333 332
3 313 314 333
3 314 334 333
3 314 315 334
3 315 335 334
3 315 316 335
3 316 336 335
3 316 317 336
3 317 337 336
3 317 318 337
3 318 338 337
3 318 319 338
3 319 339 338
3 320 321 340
3 321 341 340
3 321 322 341
3 322 342 341
3 322 323 342
3 323 343 342
3 323 324 343
3 324 344 343
3 324 325 344
3 325 345 344
3 325 326 345
3 326 346 345
3 326 327 346
3 327 347 346
3 327 328 347
3 328 348 347
3 328 329 348
3 329 349 348
3 329 330 349
3 330 350 349
3 330 331 350
3 331 351 350
3 331 332 351
3 332 352 351
3 332 333 352
3 333 353 352
3 333 334 353
3 334 354 353
3 334 335 354
3 335 355 354
3 335 336 355
3 336 356 355
3 336 337 356
3 337 357 356
3 337 338 357
3 338 358 357
3 338 339 358
3 339 359 358
3 340 341 360
3 341 361 360
3 341 342 361
3 342 362 361
3 342 343 362
3 343 363 362
3 343 344 363
3 344 364 363
3 344 345 364
3 345 365 364
3 345 346 365
3 346 366 365
3 346 347 366
3 347 367 366
3 347 348 367
3 348 368 367
3 348 349 368
3 349 369 368
3 349 350 369
3 350 370 369
3 350 351 370
3 351 371 370
3 351 352 371
3 352 372 371
3 352 353 372
3 353 373 372
3 353 354 373
3 354 374 373
3 354 355 374
3 355 375 374
3 355 356 375
3 356 376 375
3 356 357 376
3 357 377 376
3 357 358 377
3 358 378 377
3 358 359 378
3 359 379 378
3 360 361 380
3 361 381 380
3 361 362 381
3 362 382 381
3 362 363 382
3 363 383 382
3 363 364 383
3 364 384 383
3 364 365 384
3 365 385 384
3 365 366 385
3 366 386 385
3 366 367 386
3 367 387 386
3 367 368 387
3 368 388 387
3 368 369 388
3 369 389 388
3 369 370 389
3 370 390 389
3 370 371 390
3 371 391 390
3 371 372 391
3 372 392 391
3 372 373 392
3 373 393 392
3 373 374 393
3 374 394 393
3 374 375 394
3 375 395 394
3 375 376 395
3 376 396 395
3 376 377 396
3 377 397 396
3 377 378 397
3 378 398 397
3 378 379 398
3 379 399 398
