ply
format ascii 1.0
element vertex 400
property float x
property float y
property float z
property uchar red
property uchar green
property uchar blue
property uchar alpha
element face 722
property list uchar int vertex_indices
end_header
0 0 200 255 255 0 255
0 0 204.277 255 255 0 255
0 0 206.939 255 255 0 255
0 0 207.174 255 255 0 255
0 0 205.166 255 255 0 255
-0 0 201.912 255 255 0 255
-0 0 198.654 255 255 0 255
-0 0 196.031 255 255 0 255
-0 0 193.835 255 255 0 255
-0 0 192.213 255 255 0 255
-0 -0 191.895 255 255 0 255
-0 -0 193.381 255 255 0 255
-0 -0 196.515 255 255 0 255
-0 -0 200.44 255 255 0 255
-0 -0 203.746 255 255 0 255
0 -0 205.2 255 255 0 255
0 -0 204.644 255 255 0 255
0 -0 202.694 255 255 0 255
0 -0 199.742 255 255 0 255
0 0 196.457 255 255 0 255
32.5669 0 195.163 255 255 0 255
31.446 10.7954 199.241 255 255 0 255
26.5968 20.7011 201.974 255 255 0 255
18.4635 28.2606 202.297 255 255 0 255
8.20824 32.4136 200.376 255 255 0 255
-2.71965 32.8212 197.361 255 255 0 255
-13.0425 29.734 194.575 255 255 0 255
-21.7697 23.6483 192.621 255 255 0 255
-28.0612 15.186 191.207 255 255 0 255
-31.3285 5.22779 190.337 255 255 0 255
-31.3655 -5.23399 190.562 255 255 0 255
-28.2283 -15.2764 192.345 255 255 0 255
-22.101 -24.0081 195.552 255 255 0 255
-13.3605 -30.459 199.318 255 255 0 255
-2.7908 -33.68 202.525 255 255 0 255
8.37031 -33.0536 204.332 255 255 0 255
18.6706 -28.5775 204.566 255 255 0 255
26.7648 -20.8319 203.25 255 255 0 255
31.6285 -10.8581 200.397 255 255 0 255
32.8274 5.73973e-06 196.724 255 255 0 255
63.8254 0 185.917 255 255 0 255
61.3986 21.0782 189.094 255 255 0 255
51.7513 40.2796 191.026 255 255 0 255
35.8362 54.8513 190.854 255 255 0 255
15.9362 62.9308 189.097 255 255 0 255
-5.30127 63.9767 186.997 255 255 0 255
-25.5985 58.3587 185.628 255 255 0 255
-43.0568 46.7722 185.182 255 255 0 255
-55.8757 30.2384 185.065 255 255 0 255
-62.6512 10.4546 185.02 255 255 0 255
-62.7388 -10.4693 185.279 255 255 0 255
-56.264 -30.4485 186.352 255 255 0 255
-43.8251 -47.6067 188.486 255 255 0 255
-26.3715 -60.1211 191.234 255 255 0 255
-5.49553 -66.3211 193.849 255 255 0 255
16.5042 -65.1734 195.836 255 255 0 255
36.9498 -56.5559 196.785 255 255 0 255
53.1632 -41.3785 196.238 255 255 0 255
62.9969 -21.6268 194.016 255 255 0 255
65.4982 1.14521e-05 190.79 255 255 0 255
93.7959 0 173.32 255 255 0 255
89.4379 30.7041 174.734 255 255 0 255
74.7782 58.2022 175.099 255 255 0 255
51.538 78.8848 174.119 255 255 0 255
22.9256 90.5314 172.568 255 255 0 255
-7.67117 92.5771 171.654 255 255 0 255
-37.3921 85.2454 172.007 255 255 0 255
-63.499 68.9783 173.245 255 255 0 255
-83.0291 44.9331 174.45 255 255 0 255
-93.4094 15.5872 174.992 255 255 0 255
-93.2888 -15.5672 174.766 255 255 0 255
-83.0041 -44.9196 174.398 255 255 0 255
-64.0317 -69.557 174.699 255 255 0 255
-38.2486 -87.198 175.947 255 255 0 255
-7.94577 -95.8911 177.799 255 255 0 255
23.8856 -94.322 179.793 255 255 0 255
53.6441 -82.1083 181.234 255 255 0 255
77.5163 -60.3333 181.511 255 255 0 255
92.3197 -31.6933 180.364 255 255 0 255
96.5028 1.68731e-05 178.322 255 255 0 255
122.678 0 157.617 255 255 0 255
115.598 39.6847 157.028 255 255 0 255
95.5538 74.3725 155.571 255 255 0 255
65.4527 100.183 153.751 255 255 0 255
29.1319 115.039 152.468 255 255 0 255
-9.80481 118.326 152.547 255 255 0 255
-48.2059 109.898 154.184 255 255 0 255
-82.5418 89.6643 156.581 255 255 0 255
-108.592 58.7672 158.64 255 255 0 255
-122.371 20.42 159.396 255 255 0 255
-121.685 -20.3056 158.503 255 255 0 255
-107.261 -58.0466 156.694 255 255 0 255
-81.8506 -88.9134 155.27 255 255 0 255
-48.5076 -110.586 155.149 255 255 0 255
-10.0428 -121.198 156.249 255 255 0 255
30.1815 -119.184 157.961 255 255 0 255
67.9517 -104.008 159.621 255 255 0 255
98.6413 -76.7756 160.598 255 255 0 255
118.213 -40.5825 160.581 255 255 0 255
124.464 2.17619e-05 159.911 255 255 0 255
149.657 0 137.769 255 255 0 255
139.646 47.9404 135.917 255 255 0 255
114.264 88.9353 133.294 255 255 0 255
77.8036 119.087 130.951 255 255 0 255
34.6526 136.84 129.946 255 255 0 255
-11.7209 141.45 130.66 255 255 0 255
-57.9573 132.129 132.821 255 255 0 255
-99.734 108.34 135.559 255 255 0 255
-131.63 71.2345 137.78 255 255 0 255
-148.347 24.7546 138.451 255 255 0 255
-146.937 -24.5194 137.135 255 255 0 255
-128.558 -69.572 134.564 255 255 0 255
-97.2495 -105.641 132.182 255 255 0 255
-57.2148 -130.437 131.119 255 255 0 255
-11.7926 -142.315 131.46 255 255 0 255
35.3783 -139.706 132.668 255 255 0 255
79.7449 -122.059 134.218 255 255 0 255
116.209 -90.4487 135.562 255 255 0 255
140.16 -48.117 136.418 255 255 0 255
148.731 2.60049e-05 136.916 255 255 0 255
172.648 0 112.797 255 255 0 255
160.446 55.0813 110.83 255 255 0 255
130.647 101.687 108.163 255 255 0 255
88.6971 135.761 105.949 255 255 0 255
39.5332 156.113 105.213 255 255 0 255
-13.4177 161.927 106.155 255 255 0 255
-66.5564 151.733 108.25 255 255 0 255
-114.745 124.646 110.687 255 255 0 255
-151.479 81.9763 112.529 255 255 0 255
-170.559 28.4611 112.972 255 255 0 255
-168.562 -28.1281 111.65 255 255 0 255
-146.931 -79.515 109.15 255 255 0 255
-110.598 -120.142 106.688 255 255 0 255
-64.7229 -147.553 105.268 255 255 0 255
-13.2787 -160.25 105.055 255 255 0 255
39.7111 -156.815 105.687 255 255 0 255
89.4535 -136.919 106.853 255 255 0 255
130.683 -101.715 108.193 255 255 0 255
158.446 -54.3946 109.448 255 255 0 255
169.216 2.95867e-05 110.554 255 255 0 255
189.418 0 83.0866 255 255 0 255
176.411 60.5618 81.8137 255 255 0 255
143.876 111.983 79.9727 255 255 0 255
97.8106 149.71 78.442 255 255 0 255
43.6562 172.395 78.0062 255 255 0 255
-14.8384 179.073 78.818 255 255 0 255
-73.6358 167.873 80.4084 255 255 0 255
-126.812 137.755 82.1297 255 255 0 255
-167.05 90.4026 83.3165 255 255 0 255
-187.819 31.3414 83.5243 255 255 0 255
-185.75 -30.9962 82.604 255 255 0 255
-162.237 -87.7984 80.9164 255 255 0 255
-122.305 -132.859 79.2108 255 255 0 255
-71.5262 -163.063 78.1048 255 255 0 255
-14.6243 -176.489 77.6808 255 255 0 255
43.5192 -171.853 77.7613 255 255 0 255
97.6307 -149.435 78.2977 255 255 0 255
142.466 -110.886 79.1893 255 255 0 255
173.053 -59.4091 80.2566 255 255 0 255
185.4 3.24164e-05 81.3241 255 255 0 255
198.972 0 50.3865 255 255 0 255
186.486 64.0208 49.93 255 255 0 255
153.051 119.125 49.114 255 255 0 255
104.533 159.999 48.398 255 255 0 255
46.7544 184.629 48.2302 255 255 0 255
-15.8871 191.728 48.7185 255 255 0 255
-78.6645 179.337 49.5912 255 255 0 255
-134.985 146.633 50.4706 255 255 0 255
-177.189 95.8898 51.0195 255 255 0 255
-198.987 33.2051 51.0872 255 255 0 255
-197.489 -32.9551 50.7025 255 255 0 255
-173.754 -94.031 50.0305 255 255 0 255
-132.021 -143.413 49.3623 255 255 0 255
-77.5674 -176.836 48.8996 255 255 0 255
-15.8485 -191.263 48.6002 255 255 0 255
46.9242 -185.299 48.4054 255 255 0 255
104.483 -159.923 48.375 255 255 0 255
151.384 -117.827 48.5791 255 255 0 255
183.132 -62.8693 49.032 255 255 0 255
195.993 3.42685e-05 49.6321 255 255 0 255
201.646 0 16.7088 255 255 0 255
190.336 65.3426 16.6752 255 255 0 255
157.344 122.466 16.5216 255 255 0 255
108.063 165.403 16.3715 255 255 0 255
48.4535 191.339 16.3552 255 255 0 255
-16.4494 198.514 16.5057 255 255 0 255
-81.1661 185.04 16.7431 255 255 0 255
-138.621 150.583 16.9596 255 255 0 255
-181.264 98.0951 17.0783 255 255 0 255
-203.375 33.9373 17.0852 255 255 0 255
-202.66 -33.8181 17.0251 255 255 0 255
-179.951 -97.3847 16.9546 255 255 0 255
-138.218 -150.145 16.9104 255 255 0 255
-81.8413 -186.579 16.8823 255 255 0 255
-16.7579 -202.238 16.8153 255 255 0 255
49.4663 -195.338 16.6971 255 255 0 255
109.278 -167.262 16.5555 255 255 0 255
156.668 -121.94 16.4507 255 255 0 255
187.712 -64.4416 16.4453 255 255 0 255
199.749 3.49252e-05 16.5517 255 255 0 255
198.354 0 -16.4361 255 255 0 255
187.927 64.5156 -16.4642 255 255 0 255
156.167 121.55 -16.3981 255 255 0 255
107.813 165.02 -16.3336 255 255 0 255
48.4913 191.488 -16.368 255 255 0 255
-16.4604 198.648 -16.5168 255 255 0 255
-80.9901 184.639 -16.7068 255 255 0 255
-137.712 149.595 -16.8485 255 255 0 255
-179.346 97.0573 -16.8977 255 255 0 255
-200.967 33.5354 -16.8829 255 255 0 255
-200.839 -33.5141 -16.8721 255 255 0 255
-179.61 -97.2 -16.9225 255 255 0 255
-139.221 -151.234 -17.0331 255 255 0 255
-83.0322 -189.295 -17.128 255 255 0 255
-17.0677 -205.977 -17.1263 255 255 0 255
50.3795 -198.944 -17.0053 255 255 0 255
110.732 -169.488 -16.7759 255 255 0 255
157.277 -122.413 -16.5146 255 255 0 255
186.435 -64.0032 -16.3335 255 255 0 255
196.767 3.44038e-05 -16.3046 255 255 0 255
190.128 0 -48.1469 255 255 0 255
179.988 61.79 -48.1902 255 255 0 255
149.943 116.705 -48.1165 255 255 0 255
103.982 159.156 -48.143 255 255 0 255
46.9535 185.415 -48.4356 255 255 0 255
-15.9633 192.648 -48.9524 255 255 0 255
-78.4584 178.867 -49.4612 255 255 0 255
-132.946 144.418 -49.7084 255 255 0 255
-172.381 93.2877 -49.635 255 255 0 255
-192.611 32.1411 -49.4502 255 255 0 255
-192.606 -32.1404 -49.449 255 255 0 255
-172.825 -93.5284 -49.7631 255 255 0 255
-134.512 -146.119 -50.2938 255 255 0 255
-80.5439 -183.622 -50.776 255 255 0 255
-16.6246 -200.63 -50.9804 255 255 0 255
49.2094 -194.323 -50.7626 255 255 0 255
108.115 -165.482 -50.0565 255 255 0 255
152.885 -118.995 -49.0606 255 255 0 255
179.931 -61.7702 -48.1749 255 255 0 255
188.522 3.29622e-05 -47.7403 255 255 0 255
177.87 0 -78.0209 255 255 0 255
167.788 57.6015 -77.8146 255 255 0 255
139.827 108.831 -77.7221 255 255 0 255
97.3386 148.988 -78.0635 255 255 0 255
44.1623 174.393 -78.9106 255 255 0 255
-15.0637 181.791 -80.0142 255 255 0 255
-74.0898 168.908 -80.904 255 255 0 255
-125.248 136.056 -81.1167 255 255 0 255
-161.641 87.4755 -80.6189 255 255 0 255
-179.701 29.9867 -79.914 255 255 0 255
-179.091 -29.885 -79.6428 255 255 0 255
-160.499 -86.8575 -80.0493 255 255 0 255
-124.873 -135.649 -80.8742 255 255 0 255
-74.8826 -170.715 -81.7698 255 255 0 255
-15.511 -187.19 -82.3907 255 255 0 255
46.1301 -182.163 -82.4265 255 255 0 255
101.768 -155.768 -81.6159 255 255 0 255
144.143 -112.191 -80.1211 255 255 0 255
169.341 -58.1347 -78.535 255 255 0 255
176.639 3.08845e-05 -77.481 255 255 0 255
161.77 0 -105.689 255 255 0 255
152.231 52.261 -105.155 255 255 0 255
126.852 98.7327 -105.021 255 255 0 255
88.6117 135.63 -105.847 255 255 0 255
40.4049 159.555 -107.533 255 255 0 255
-13.8377 166.996 -109.478 255 255 0 255
-68.1702 155.412 -110.875 255 255 0 255
-115.066 124.995 -110.998 255 255 0 255
-147.811 79.9911 -109.804 255 255 0 255
-163.211 27.2351 -108.105 255 255 0 255
-161.492 -26.9483 -106.967 255 255 0 255
-143.924 -77.8878 -106.917 255 255 0 255
-111.66 -121.295 -107.712 255 255 0 255
-66.9643 -152.663 -108.913 255 255 0 255
-13.9105 -167.875 -110.054 255 255 0 255
41.5935 -164.249 -110.696 255 255 0 255
92.4619 -141.523 -110.446 255 255 0 255
131.944 -102.696 -109.237 255 255 0 255
155.685 -53.4466 -107.541 255 255 0 255
162.358 2.83875e-05 -106.074 255 255 0 255
141.801 0 -130.537 255 255 0 255
133.524 45.8388 -129.959 255 255 0 255
111.445 86.7412 -130.005 255 255 0 255
78.1121 119.559 -131.47 255 255 0 255
35.7647 141.232 -134.117 255 255 0 255
-12.2842 148.248 -136.939 255 255 0 255
-60.5742 138.095 -138.818 255 255 0 255
-102.116 110.928 -138.797 255 255 0 255
-130.661 70.71 -136.766 255 255 0 255
-143.352 23.9212 -133.79 255 255 0 255
-140.788 -23.4934 -131.397 255 255 0 255
-124.687 -67.4771 -130.512 255 255 0 255
-96.3569 -104.671 -130.969 255 255 0 255
-57.7053 -131.555 -132.243 255 255 0 255
-12.0059 -144.89 -133.838 255 255 0 255
36.1015 -142.561 -135.38 255 255 0 255
81.0623 -124.075 -136.435 255 255 0 255
116.985 -91.0531 -136.468 255 255 0 255
139.199 -47.7869 -135.482 255 255 0 255
145.609 2.54591e-05 -134.043 255 255 0 255
118.36 0 -152.069 255 255 0 255
111.789 38.3771 -151.854 255 255 0 255
93.6357 72.8796 -152.448 255 255 0 255
65.813 100.734 -154.597 255 255 0 255
30.1857 119.201 -157.983 255 255 0 255
-10.3704 125.152 -161.347 255 255 0 255
-51.0858 116.464 -163.395 255 255 0 255
-86.0194 93.442 -163.178 255 255 0 255
-109.936 59.4942 -160.602 255 255 0 255
-120.386 20.0889 -156.811 255 255 0 255
-117.849 -19.6655 -153.506 255 255 0 255
-103.916 -56.2366 -151.809 255 255 0 255
-79.9466 -86.8452 -151.658 255 255 0 255
-47.7258 -108.804 -152.648 255 255 0 255
-9.93626 -119.913 -154.592 255 255 0 255
30.0292 -118.583 -157.164 255 255 0 255
67.9775 -104.047 -159.681 255 255 0 255
99.0398 -77.0857 -161.247 255 255 0 255
118.769 -40.7734 -161.336 255 255 0 255
124.7 2.18032e-05 -160.214 255 255 0 255
92.1291 0 -170.24 255 255 0 255
87.3032 29.9712 -170.564 255 255 0 255
73.3474 57.0886 -171.749 255 255 0 255
51.5942 78.9709 -174.309 255 255 0 255
23.6361 93.337 -177.916 255 255 0 255
-8.10009 97.7535 -181.252 255 255 0 255
-39.8035 90.7428 -183.1 255 255 0 255
-67.056 72.8423 -182.95 255 255 0 255
-86.0166 46.5498 -180.727 255 255 0 255
-94.6087 15.7874 -177.239 255 255 0 255
-92.8335 -15.4912 -173.913 255 255 0 255
-81.7502 -44.241 -171.763 255 255 0 255
-62.6094 -68.0119 -170.818 255 255 0 255
-37.1976 -84.802 -171.113 255 255 0 255
-7.73209 -93.3124 -173.017 255 255 0 255
23.4067 -92.4307 -176.188 255 255 0 255
53.137 -81.3321 -179.521 255 255 0 255
77.6699 -60.4529 -181.871 255 255 0 255
93.4401 -32.078 -182.554 255 255 0 255
98.2855 1.71848e-05 -181.616 255 255 0 255
63.4624 0 -184.86 255 255 0 255
60.1905 20.6634 -185.373 255 255 0 255
50.5844 39.3714 -186.719 255 255 0 255
35.5272 54.3785 -189.209 255 255 0 255
16.2205 64.0533 -192.47 255 255 0 255
-5.53734 66.8257 -195.324 255 255 0 255
-27.169 61.9392 -197.017 255 255 0 255
-45.8821 49.8413 -197.333 255 255 0 255
-59.2474 32.0631 -196.233 255 255 0 255
-65.7037 10.964 -194.035 255 255 0 255
-64.865 -10.8241 -191.558 255 255 0 255
-57.1881 -30.9486 -189.412 255 255 0 255
-43.6449 -47.411 -187.711 255 255 0 255
-25.8056 -58.8308 -187.13 255 255 0 255
-5.34235 -64.4725 -188.446 255 255 0 255
16.1219 -63.664 -191.301 255 255 0 255
36.5001 -55.8675 -194.39 255 255 0 255
53.2 -41.4072 -196.373 255 255 0 255
63.8543 -21.9212 -196.657 255 255 0 255
67.0895 1.17303e-05 -195.425 255 255 0 255
32.5045 0 -194.789 255 255 0 255
30.7565 10.5587 -194.873 255 255 0 255
25.7724 20.0594 -195.714 255 255 0 255
18.0342 27.6034 -197.593 255 255 0 255
8.20107 32.3853 -200.201 255 255 0 255
-2.7939 33.7173 -202.75 255 255 0 255
-13.72 31.2784 -204.681 255 255 0 255
-23.2445 25.2503 -205.671 255 255 0 255
-30.1965 16.3415 -205.757 255 255 0 255
-33.7467 5.63133 -205.03 255 255 0 255
-33.5198 -5.59347 -203.651 255 255 0 255
-29.6036 -16.0206 -201.717 255 255 0 255
-22.5493 -24.4951 -199.52 255 255 0 255
-13.2858 -30.2885 -198.203 255 255 0 255
-2.73759 -33.0378 -198.664 255 255 0 255
8.21469 -32.4391 -200.533 255 255 0 255
18.4849 -28.2932 -202.531 255 255 0 255
26.7883 -20.8501 -203.428 255 255 0 255
32.0076 -10.9882 -202.8 255 255 0 255
33.5391 5.86417e-06 -200.989 255 255 0 255
-1.73945e-05 -0 -198.969 255 255 0 255
-1.6382e-05 -5.62394e-06 -198.123 255 255 0 255
-1.36502e-05 -1.06244e-05 -197.862 255 255 0 255
-9.49817e-06 -1.4538e-05 -198.641 255 255 0 255
-4.30215e-06 -1.69888e-05 -200.464 255 255 0 255
1.46572e-06 -1.76886e-05 -203.028 255 255 0 255
7.22229e-06 -1.64652e-05 -205.662 255 255 0 255
1.22885e-05 -1.33489e-05 -207.542 255 255 0 255
1.60248e-05 -8.67217e-06 -208.422 255 255 0 255
1.79763e-05 -2.9997e-06 -208.468 255 255 0 255
1.79003e-05 2.98703e-06 -207.587 255 255 0 255
1.58135e-05 8.55785e-06 -205.675 255 255 0 255
1.20389e-05 1.30777e-05 -203.326 255 255 0 255
7.08349e-06 1.61487e-05 -201.709 255 255 0 255
1.45523e-06 1.7562e-05 -201.575 255 255 0 255
-4.34591e-06 1.71616e-05 -202.503 255 255 0 255
-9.72249e-06 1.48814e-05 -203.332 255 255 0 255
-1.40108e-05 1.0905e-05 -203.087 255 255 0 255
-1.66697e-05 5.72269e-06 -201.602 255 255 0 255
-1.74327e-05 -3.04803e-12 -199.407 255 255 0 255
3 0 1 20
3 1 21 20
3 1 2 21
3 2 22 21
3 2 3 22
3 3 23 22
3 3 4 23
3 4 24 23
3 4 5 24
3 5 25 24
3 5 6 25
3 6 26 25
3 6 7 26
3 7 27 26
3 7 8 27
3 8 28 27
3 8 9 28
3 9 29 28
3 9 10 29
3 10 30 29
3 10 11 30
3 11 31 30
3 11 12 31
3 12 32 31
3 12 13 32
3 13 33 32
3 13 14 33
3 14 34 33
3 14 15 34
3 15 35 34
3 15 16 35
3 16 36 35
3 16 17 36
3 17 37 36
3 17 18 37
3 18 38 37
3 18 19 38
3 19 39 38
3 20 21 40
3 21 41 40
3 21 22 41
3 22 42 41
3 22 23 42
3 23 43 42
3 23 24 43
3 24 44 43
3 24 25 44
3 25 45 44
3 25 26 45
3 26 46 45
3 26 27 46
3 27 47 46
3 27 28 47
3 28 48 47
3 28 29 48
3 29 49 48
3 29 30 49
3 30 50 49
3 30 31 50
3 31 51 50
3 31 32 51
3 32 52 51
3 32 33 52
3 33 53 52
3 33 34 53
3 34 54 53
3 34 35 54
3 35 55 54
3 35 36 55
3 36 56 55
3 36 37 56
3 37 57 56
3 37 38 57
3 38 58 57
3 38 39 58
3 39 59 58
3 40 41 60
3 41 61 60
3 41 42 61
3 42 62 61
3 42 43 62
3 43 63 62
3 43 44 63
3 44 64 63
3 44 45 64
3 45 65 64
3 45 46 65
3 46 66 65
3 46 47 66
3 47 67 66
3 47 48 67
3 48 68 67
3 48 49 68
3 49 69 68
3 49 50 69
3 50 70 69
3 50 51 70
3 51 71 70
3 51 52 71
3 52 72 71
3 52 53 72
3 53 73 72
3 53 54 73
3 54 74 73
3 54 55 74
3 55 75 74
3 55 56 75
3 56 76 75
3 56 57 76
3 57 77 76
3 57 58 77
3 58 78 77
3 58 59 78
3 59 79 78
3 60 61 80
3 61 81 80
3 61 62 81
3 62 82 81
3 62 63 82
3 63 83 82
3 63 64 83
3 64 84 83
3 64 65 84
3 65 85 84
3 65 66 85
3 66 86 85
3 66 67 86
3 67 87 86
3 67 68 87
3 68 88 87
3 68 69 88
3 69 89 88
3 69 70 89
3 70 90 89
3 70 71 90
3 71 91 90
3 71 72 91
3 72 92 91
3 72 73 92
3 73 93 92
3 73 74 93
3 74 94 93
3 74 75 94
3 75 95 94
3 75 76 95
3 76 96 95
3 76 77 96
3 77 97 96
3 77 78 97
3 78 98 97
3 78 79 98
3 79 99 98
3 80 81 100
3 81 101 100
3 81 82 101
3 82 102 101
3 82 83 102
3 83 103 102
3 83 84 103
3 84 104 103
3 84 85 104
3 85 105 104
3 85 86 105
3 86 106 105
3 86 87 106
3 87 107 106
3 87 88 107
3 88 108 107
3 88 89 108
3 89 109 108
3 89 90 109
3 90 110 109
3 90 91 110
3 91 111 110
3 91 92 111
3 92 112 111
3 92 93 112
3 93 113 112
3 93 94 113
3 94 114 113
3 94 95 114
3 95 115 114
3 95 96 115
3 96 116 115
3 96 97 116
3 97 117 116
3 97 98 117
3 98 118 117
3 98 99 118
3 99 119 118
3 100 101 120
3 101 121 120
3 101 102 121
3 102 122 121
3 102 103 122
3 103 123 122
3 103 104 123
3 104 124 123
3 104 105 124
3 105 125 124
3 105 106 125
3 106 126 125
3 106 107 126
3 107 127 126
3 107 108 127
3 108 128 127
3 108 109 128
3 109 129 128
3 109 110 129
3 110 130 129
3 110 111 130
3 111 131 130
3 111 112 131
3 112 132 131
3 112 113 132
3 113 133 132
3 113 114 133
3 114 134 133
3 114 115 134
3 115 135 134
3 115 116 135
3 116 136 135
3 116 117 136
3 117 137 136
3 117 118 137
3 118 138 137
3 118 119 138
3 119 139 138
3 120 121 140
3 121 141 140
3 121 122 141
3 122 142 141
3 122 123 142
3 123 143 142
3 123 124 143
3 124 144 143
3 124 125 144
3 125 145 144
3 125 126 145
3 126 146 145
3 126 127 146
3 127 147 146
3 127 128 147
3 128 148 147
3 128 129 148
3 129 149 148
3 129 130 149
3 130 150 149
3 130 131 150
3 131 151 150
3 131 132 151
3 132 152 151
3 132 133 152
3 133 153 152
3 133 134 153
3 134 154 153
3 134 135 154
3 135 155 154
3 135 136 155
3 136 156 155
3 136 137 156
3 137 157 156
3 137 138 157
3 138 158 157
3 138 139 158
3 139 159 158
3 140 141 160
3 141 161 160
3 141 142 161
3 142 162 161
3 142 143 162
3 143 163 162
3 143 144 163
3 144 164 163
3 144 145 164
3 145 165 164
3 145 146 165
3 146 166 165
3 146 147 166
3 147 167 166
3 147 148 167
3 148 168 167
3 148 149 168
3 149 169 168
3 149 150 169
3 150 170 169
3 150 151 170
3 151 171 170
3 151 152 171
3 152 172 171
3 152 153 172
3 153 173 172
3 153 154 173
3 154 174 173
3 154 155 174
3 155 175 174
3 155 156 175
3 156 176 175
3 156 157 176
3 157 177 176
3 157 158 177
3 158 178 177
3 158 159 178
3 159 179 178
3 160 161 180
3 161 181 180
3 161 162 181
3 162 182 181
3 162 163 182
3 163 183 182
3 163 164 183
3 164 184 183
3 164 165 184
3 165 185 184
3 165 166 185
3 166 186 185
3 166 167 186
3 167 187 186
3 167 168 187
3 168 188 187
3 168 169 188
3 169 189 188
3 169 170 189
3 170 190 189
3 170 171 190
3 171 191 190
3 171 172 191
3 172 192 191
3 172 173 192
3 173 193 192
3 173 174 193
3 174 194 193
3 174 175 194
3 175 195 194
3 175 176 195
3 176 196 195
3 176 177 196
3 177 197 196
3 177 178 197
3 178 198 197
3 178 179 198
3 179 199 198
3 180 181 200
3 181 201 200
3 181 182 201
3 182 202 201
3 182 183 202
3 183 203 202
3 183 184 203
3 184 204 203
3 184 185 204
3 185 205 204
3 185 186 205
3 186 206 205
3 186 187 206
3 187 207 206
3 187 188 207
3 188 208 207
3 188 189 208
3 189 209 208
3 189 190 209
3 190 210 209
3 190 191 210
3 191 211 210
3 191 192 211
3 192 212 211
3 192 193 212
3 193 213 212
3 193 194 213
3 194 214 213
3 194 195 214
3 195 215 214
3 195 196 215
3 196 216 215
3 196 197 216
3 197 217 216
3 197 198 217
3 198 218 217
3 198 199 218
3 199 219 218
3 200 201 220
3 201 221 220
3 201 202 221
3 202 222 221
3 202 203 222
3 203 223 222
3 203 204 223
3 204 224 223
3 204 205 224
3 205 225 224
3 205 206 225
3 206 226 225
3 206 207 226
3 207 227 226
3 207 208 227
3 208 228 227
3 208 209 228
3 209 229 228
3 209 210 229
3 210 230 229
3 210 211 230
3 211 231 230
3 211 212 231
3 212 232 231
3 212 213 232
3 213 233 232
3 213 214 233
3 214 234 233
3 214 215 234
3 215 235 234
3 215 216 235
3 216 236 235
3 216 217 236
3 217 237 236
3 217 218 237
3 218 238 237
3 218 219 238
3 219 239 238
3 220 221 240
3 221 241 240
3 221 222 241
3 222 242 241
3 222 223 242
3 223 243 242
3 223 224 243
3 224 244 243
3 224 225 244
3 225 245 244
3 225 226 245
3 226 246 245
3 226 227 246
3 227 247 246
3 227 228 247
3 228 248 247
3 228 229 248
3 229 249 248
3 229 230 249
3 230 250 249
3 230 231 250
3 231 251 250
3 231 232 251
3 232 252 251
3 232 233 252
3 233 253 252
3 233 234 253
3 234 254 253
3 234 235 254
3 235 255 254
3 235 236 255
3 236 256 255
3 236 237 256
3 237 257 256
3 237 238 257
3 238 258 257
3 238 239 258
3 239 259 258
3 240 241 260
3 241 261 260
3 241 242 261
3 242 262 261
3 242 243 262
3 243 263 262
3 243 244 263
3 244 264 263
3 244 245 264
3 245 265 264
3 245 246 265
3 246 266 265
3 246 247 266
3 247 267 266
3 247 248 267
3 248 268 267
3 248 249 268
3 249 269 268
3 249 250 269
3 250 270 269
3 250 251 270
3 251 271 270
3 251 252 271
3 252 272 271
3 252 253 272
3 253 273 272
3 253 254 273
3 254 274 273
3 254 255 274
3 255 275 274
3 255 256 275
3 256 276 275
3 256 257 276
3 257 277 276
3 257 258 277
3 258 278 277
3 258 259 278
3 259 279 278
3 260 261 280
3 261 281 280
3 261 262 281
3 262 282 281
3 262 263 282
3 263 283 282
3 263 264 283
3 264 284 283
3 264 265 284
3 265 285 284
3 265 266 285
3 266 286 285
3 266 267 286
3 267 287 286
3 267 268 287
3 268 288 287
3 268 269 288
3 269 289 288
3 269 270 289
3 270 290 289
3 270 271 290
3 271 291 290
3 271 272 291
3 272 292 291
3 272 273 292
3 273 293 292
3 273 274 293
3 274 294 293
3 274 275 294
3 275 295 294
3 275 276 295
3 276 296 295
3 276 277 296
3 277 297 296
3 277 278 297
3 278 298 297
3 278 279 298
3 279 299 298
3 280 281 300
3 281 301 300
3 281 282 301
3 282 302 301
3 282 283 302
3 283 303 302
3 283 284 303
3 284 304 303
3 284 285 304
3 285 305 304
3 285 286 305
3 286 306 305
3 286 287 306
3 287 307 306
3 287 288 307
3 288 308 307
3 288 289 308
3 289 309 308
3 289 290 309
3 290 310 309
3 290 291 310
3 291 311 310
3 291 292 311
3 292 312 311
3 292 293 312
3 293 313 312
3 293 294 313
3 294 314 313
3 294 295 314
3 295 315 314
3 295 296 315
3 296 316 315
3 296 297 316
3 297 317 316
3 297 298 317
3 298 318 317
3 298 299 318
3 299 319 318
3 300 301 320
3 301 321 320
3 301 302 321
3 302 322 321
3 302 303 322
3 303 323 322
3 303 304 323
3 304 324 323
3 304 305 324
3 305 325 324
3 305 306 325
3 306 326 325
3 306 307 326
3 307 327 326
3 307 308 327
3 308 328 327
3 308 309 328
3 309 329 328
3 309 310 329
3 310 330 329
3 310 311 330
3 311 331 330
3 311 312 331
3 312 332 331
3 312 313 332
3 313 333 332
3 313 314 333
3 314 334 333
3 314 315 334
3 315 335 334
3 315 316 335
3 316 336 335
3 316 317 336
3 317 337 336
3 317 318 337
3 318 338 337
3 318 319 338
3 319 339 338
3 320 321 340
3 321 341 340
3 321 322 341
3 322 342 341
3 322 323 342
3 323 343 342
3 323 324 343
3 324 344 343
3 324 325 344
3 325 345 344
3 325 326 345
3 326 346 345
3 326 327 346
3 327 347 346
3 327 328 347
3 328 348 347
3 328 329 348
3 329 349 348
3 329 330 349
3 330 350 349
3 330 331 350
3 331 351 350
3 331 332 351
3 332 352 351
3 332 333 352
3 333 353 352
3 333 334 353
3 334 354 353
3 334 335 354
3 335 355 354
3 335 336 355
3 336 356 355
3 336 337 356
3 337 357 356
3 337 338 357
3 338 358 357
3 338 339 358
3 339 359 358
3 340 341 360
3 341 361 360
3 341 342 361
3 342 362 361
3 342 343 362
3 343 363 362
3 343 344 363
3 344 364 363
3 344 345 364
3 345 365 364
3 345 346 365
3 346 366 365
3 346 347 366
3 347 367 366
3 347 348 367
3 348 368 367
3 348 349 368
3 349 369 368
3 349 350 369
3 350 370 369
3 350 351 370
3 351 371 370
3 351 352 371
3 352 372 371
3 352 353 372
3 353 373 372
3 353 354 373
3 354 374 373
3 354 355 374
3 355 375 374
3 355 356 375
3 356 376 375
3 356 357 376
3 357 377 376
3 357 358 377
3 358 378 377
3 358 359 378
3 359 379 378
3 360 361 380
3 361 381 380
3 361 362 381
3 362 382 381
3 362 363 382
3 363 383 382
3 363 364 383
3 364 384 383
3 364 365 384
3 365 385 384
3 365 366 385
3 366 386 385
3 366 367 386
3 367 387 386
3 367 368 387
3 368 388 387
3 368 369 388
3 369 389 388
3 369 370 389
3 370 390 389
3 370 371 390
3 371 391 390
3 371 372 391
3 372 392 391
3 372 373 392
3 373 393 392
3 373 374 393
3 374 394 393
3 374 375 394
3 375 395 394
3 375 376 395
3 376 396 395
3 376 377 396
3 377 397 396
3 377 378 397
3 378 398 397
3 378 379 398
3 379 399 398
